<svg xmlns:xlink="http://www.w3.org/1999/xlink" xmlns="http://www.w3.org/2000/svg" width="900" height="600">
<path fill="#fff" d="M0 0h900v600H0z"/>
<path fill="#bf0a30" d="M0 300h900v300H0z"/>
<path fill="#002868" d="M0 600h285l95-300L285 0H0Z"/>
<ellipse fill="#f3e529" transform="matrix(2.7784 0 0 2.2367 -19.3738 39.1056)" cx="60.4209" cy="116.6445" rx="40.4908" ry="40.2385"/>
<g fill="#002868">
<path d="M124.1292 252.2192c3.9157 3.355 6.9923 8.1079 6.9923 10.3445 0 2.5163 3.0766 4.4734 6.9923 5.0325 3.9157.5592 9.7892 2.2367 13.4252 3.9142 4.7547 2.5162 6.9923 2.5162 9.5095 0 1.9578-1.957 6.9922-3.355 11.4673-3.355 7.5517 0 8.111.8387 6.9923 8.1079-.839 6.1508.5594 9.2262 6.7126 14.2587 4.1953 3.355 7.8313 8.108 7.8313 10.3446 0 3.0754-1.6781 2.2366-5.3141-2.2367-4.7548-5.8712-5.0344-5.8712-4.7548-1.1183.2797 3.0754 2.2376 8.9466 4.4751 13.1404 2.797 6.1508 3.0766 8.3875 0 12.022-3.636 4.4734-18.18 6.1509-15.6627 1.6775.839-1.3979-3.636-2.2366-10.3486-1.6775-7.272.2796-14.8236-1.1183-20.1378-4.1937-4.475-2.7958-13.1454-5.8712-19.019-6.71-5.8735-1.1183-11.4673-3.9142-12.3064-6.1508-.839-1.957-3.0766-3.9142-5.314-3.9142-2.2376 0-11.1877-5.5916-19.8582-12.3016-8.6704-6.9896-17.0611-11.7425-18.1799-10.9037-3.0766 1.6775-3.636 1.3979 14.8236 14.8178 8.111 6.1509 16.2221 11.1834 18.18 11.1834 1.9578 0 5.3141 2.2366 7.272 4.7529 4.7547 6.4304 26.291 15.9362 44.1911 19.5708 3.9157.8387 16.7815 6.4304 28.8082 12.3016 12.0268 5.8712 22.9347 10.9037 23.7738 10.9037 1.1188 0 2.2375-9.7854 2.5172-21.5278.5594-17.3342-.2797-23.2054-4.7547-30.4746-3.0766-4.7529-7.5517-9.5058-9.5095-10.3445-2.5173-1.1183-3.3563-3.9142-2.5173-7.2692 2.5173-9.7854-1.3984-19.5708-8.6704-21.5279-3.636-.8387-11.1876.5592-16.7815 2.7959l-10.3485 4.4733-15.1034-11.1833c-15.9424-11.7425-27.13-15.377-15.383-4.753z"/>
<path transform="rotate(-38.86)" d="M-49.8964 396.6239h10.3945c2.049 0 3.7042.278 4.9656.834 1.2613.556 2.3039 1.354 3.1276 2.394.8237 1.04 1.421 2.2498 1.7916 3.6296.3707 1.3797.556 2.8419.556 4.3863 0 2.4198-.2754 4.2963-.8263 5.6297-.5508 1.3335-1.3154 2.4507-2.2935 3.3516-.9782.901-2.0285 1.5008-3.1508 1.7994-1.5342.4118-2.9243.6178-4.1702.6178h-10.3945zm6.9966 5.1277v12.3715h1.7144c1.4621 0 2.5021-.1622 3.12-.4865.6177-.3244 1.1016-.8907 1.4517-1.699.3501-.8083.5252-2.1185.5252-3.9307 0-2.3992-.3913-4.0415-1.1738-4.927-.7826-.8855-2.08-1.3283-3.8922-1.3283zm-46.4289-13.7623 6.0707 2.4145 3.2928 14.79 4.6293-11.6391 6.128 2.4373-8.368 21.0394-6.128-2.4374-3.284-14.6867-4.595 11.553-6.1138-2.4316zm-30.2223 3.5007-6.1873-5.0231-3.2072 2.2106-5.5518-4.5072 20.8782-12.2148 5.9235 4.809-7.6642 22.9425-5.6837-4.6143zm1.9468-4.7259 3.1877-7.8963-7.0608 4.752zm-19.4687-43.1848 3.9574 5.7699-14.0745 9.6532 6.1763 9.005-4.598 3.1537-10.1337-14.775zm-24.826-28.1509 2.023 6.3556c-1.0136.4027-1.7412.8877-2.1829 1.4548-.7136.922-.9077 2.0322-.5822 3.3306.2428.9688.6572 1.6584 1.243 2.0688.586.4104 1.1785.5405 1.7778.3903.5693-.1427 1.016-.52 1.3403-1.132.3243-.6122.4583-1.8771.4022-3.795-.077-3.144.2799-5.4893 1.0706-7.0356.7881-1.5563 2.0411-2.5498 3.759-2.9805 1.1286-.2829 2.2768-.223 3.4445.1795 1.1678.4026 2.2034 1.1886 3.107 2.358.9034 1.1694 1.6419 2.8977 2.2152 5.1849.7035 2.8065.7181 5.0772.0437 6.812s-2.1151 3.0274-4.3222 3.878l-1.9781-6.3033c.9461-.4176 1.5757-.955 1.8888-1.612.313-.657.3493-1.4648.109-2.4236-.1979-.789-.5142-1.3414-.9489-1.657-.4347-.3157-.8918-.4134-1.3712-.2932-.3496.0876-.6229.3313-.8199.731-.2095.3922-.2889 1.2189-.2381 2.48.1043 3.1265-.01 5.4135-.3422 6.861-.3324 1.4473-.9098 2.5846-1.7322 3.4117-.8223.8271-1.8327 1.391-3.0312 1.6914-1.4083.353-2.8043.289-4.1882-.1921-1.3838-.4811-2.558-1.3438-3.5228-2.5881-.9648-1.2443-1.7138-2.9302-2.247-5.0575-.9364-3.7354-.8658-6.5025.2119-8.3012 1.0777-1.7988 2.7014-3.071 4.871-3.8165zm15.71-22.203.2271 7.0083-22.6304.7336-.2272-7.0083zm160.9016 13.3145 5.103 18.0424-4.6518 1.3157-3.1946-11.2951-3.4629.9794L11.47 326.06 7.026 327.317 4.0627 316.839l-4.2951 1.2148 3.287 11.6221-4.9341 1.3956-5.1955-18.3695zm-25.6764-36.8026 4.6012 5.2708-6.446 5.627 11.2707-.1003 6.1146 7.0045-11.8582-.5963-4.9553 15.766-5.6677-6.4925 3.8775-9.7201-5.2275-.2342-4.1654 3.6363-4.6012-5.2708zm-31.906-1.6758-6.7362-4.259-2.9243 2.5733-6.0443-3.8215 19.293-14.5904 6.449 4.0774-4.9067 23.686-6.188-3.9123zm1.3763-4.9225 2.2348-8.2169-6.4515 5.551zm-54.7907-29.6552 6.602.7216 1.0054 12.8347 4.8443-12.1953 6.5867.7199 2.1109 12.9555 3.7542-12.3145 6.5713.7183-7.4194 21.9663-6.817-.7451-2.3969-14.6026-5.4794 13.7417-6.817-.745z"/>
</g>
<path id="star" fill="#f3e529" transform="translate(40.8607 46.811) scale(.7176)" d="m149.999 108.6106 7.9112 24.3453 25.5986.001-20.7091 15.0472 7.9094 24.346-20.7102-15.0457-20.7102 15.0457 7.9095-24.346-20.7091-15.0472 25.5985-.001z"/>
<use xlink:href="#star" transform="translate(0 300)"/>
<use xlink:href="#star" transform="translate(173.75 150)"/>
</svg>