<svg xmlns="http://www.w3.org/2000/svg" width="640" height="400" version="1.0">
  <path style="opacity:1;fill:#fff;fill-opacity:1;stroke:none;stroke-width:2;stroke-linecap:butt;stroke-linejoin:round;stroke-miterlimit:4;stroke-dasharray:none;stroke-opacity:1" d="M0 0h640v401.38315H0z"/>
  <path style="fill:red" d="m588.67827 81.399422.91119-7.80825-2.21536 7.62306c-4.62741 15.923263-17.8014 29.501088-31.29176 32.250548-10.03552 2.04528-18.8877 5.28504-22.39537 8.19619-2.19464 1.82147-3.01409 1.75462-5.44388-.44425-1.8442-1.66886-5.65797-2.58847-10.73504-2.58847-6.9618 0-8.29114.56388-11.4714 4.86496-1.97824 2.67574-3.99124 4.47071-4.47304 3.98882-.48192-.4819.02342-1.96002 1.12266-3.28472 1.46159-1.76095 1.50051-2.40858.14465-2.40858-1.01986 0-2.83163 2.33874-4.02584 5.19714-2.68502 6.42647-9.97446 13.06748-13.54964 13.06748-10.99748-3.86456-12.44474-21.0055-25.02488-21.9083-4.2546.21448-4.2557.21769-.31904.93421 5.4461.99117 7.52206 6.73514 14.46915 15.59031 43.76457 55.78337 104.82803 6.96471 114.2976-53.270148z"/>
  <path style="fill:red" d="M326.50627 347.16812c-69.11931.95211-159.69227-46.30046-187.5519-113.00978-2.66093-7.62044-6.52737-14.71621-9.49205-22.2083-8.86194-13.08996-17.33059-27.67933-28.48287-38.97254-26.127009-26.56504-50.866932-58.3843-52.44122-97.021092.084302-3.10337 1.074534.678674 2.334979 8.396033C61.266235 147.84635 122.9681 190.17059 167.01738 136.1167c2.92969-3.59533 5.60264-8.92678 7.34789-10.88233 3.21722-3.60462 8.94355-4.86937 8.94355-1.97533 0 .86916-1.7657 1.58025-3.92379 1.58025-3.14164 0-4.7544 1.63847-8.08797 8.21714-3.85116 7.59958-19.99217 23.96287-22.96586 24.9681-2.47926.83804-.83466 2.81056 5.3479 6.0545 13.83503 7.25895 18.61769 10.4315 33.02294 21.90536 15.38645 12.74543 33.55213 22.78978 54.0396 23.23726 18.42505-3.8527 30.05887-4.2447 41.26333 6.53615 5.90898 5.68555 17.74009 7.05693 37.9954 7.05693 20.25532 0 31.95004-1.5165 37.99542-7.05693 11.76298-10.78085 22.83828-10.38885 41.26331-6.53615 20.88306-.11018 38.18339-10.99174 54.03961-23.23726 14.40528-11.47386 19.18791-14.64641 33.02294-21.90536 6.18263-3.24394 8.66496-6.0545 5.3479-6.0545-3.13909 0-19.11469-17.36852-22.96581-24.9681-3.33363-6.57867-4.94637-8.21714-8.08802-8.21714-2.15809 0-3.92378-.71109-3.92378-1.58025 0-2.89404 5.72626-1.62929 8.94358 1.97533 1.74522 1.95555 5.05175 6.85261 7.34791 10.88233 49.35464 59.10657 107.28177 2.56013 117.12174-51.764259 1.20137-7.726743 2.25096-11.499403 2.3352-8.396033-1.71825 38.539432-28.18216 70.167402-53.41911 97.021092-10.70586 11.91842-20.55571 24.98013-28.48297 38.97254-3.44396 7.27619-6.12897 14.90514-9.49192 22.2083-34.61132 66.15702-99.73473 114.24566-174.5401 113.00978z"/>
  <path style="fill:#fff" d="M267.06217 213.42651c1.46811-6.26918-8.97152-3.69235-5.44785 1.41195 1.51105 2.4259 5.75785 1.91902 5.44785-1.41195zM378.74942 213.96389c1.71529-5.67686-8.12865-5.78359-5.79096.34159.83812 3.00308 5.12651 2.55733 5.79096-.34159z"/>
  <path style="fill:red" d="m51.521349 81.28947-.911068-7.808256 2.215286 7.623052C57.452966 97.027526 70.6272 110.6054 84.117481 113.35485c10.035326 2.04528 18.887489 5.28502 22.395429 8.1962 2.19484 1.82148 3.01403 1.75459 5.44375-.44425 1.84387-1.66889 5.65789-2.5885 10.73496-2.5885 6.96209 0 8.29164.56391 11.47154 4.86499 1.97817 2.67573 3.99104 4.47067 4.47291 3.98881.48188-.48188-.02326-1.96001-1.12271-3.28472-1.46143-1.76097-1.5004-2.40859-.14468-2.40859 1.02 0 2.83169 2.33874 4.02604 5.19717 2.68501 6.42644 9.97416 13.06745 13.54934 13.06745 10.99792-3.86455 12.44483-21.00547 25.02496-21.90827 4.25471.21444 4.2561.21769.31899.93421-5.44588.99115-7.52192 6.73512-14.46897 15.59029-43.76472 55.78337-104.828235 6.96471-114.297691-53.27017z"/>
  <path style="fill:#fff" d="M125.43302 154.09957c5.53173-4.18895 2.05617-7.16314-8.0501-6.88852l-9.13594.24826 7.90135.93693c4.3456.5153 7.68192 1.64803 7.41358 2.51717-.2683.86913-1.69044 1.38107-3.16043 1.13763-1.47011-.24344-5.51737-.76405-8.99396-1.15689l-6.32101-.71427 5.53079 1.68453c3.04214.9265 6.59752 2.29416 7.9015 3.03928 3.18476 1.82021 3.49622 1.78395 6.91422-.80412zM105.08651 146.96279c0-3.56055-7.719432-3.08948-8.413299.5134-.449053 2.33178.303028 2.78551 3.928979 2.37038 2.70423-.30963 4.48432-1.45427 4.48432-2.88378z"/>
  <path style="fill:#fff" d="M99.983643 147.5883c.525107-.5251 1.888067-.58124 3.028967-.12475 1.26052.50445.88591.8789-.95484.95473-1.66589.06862-2.599228-.30488-2.074127-.82998zM115.06005 131.48516c-.54766-4.72951-6.02293-7.15245-6.02293-2.66528 0 1.4476-1.42231 4.44011-3.16048 6.64997-4.69759 5.97202-3.88227 6.81413 3.25727 3.36459 5.43978-2.62818 6.34303-3.7483 5.92614-7.34928zM88.466932 133.48261c-3.732542-6.6455-4.018973-12.26218-.763127-14.96431 2.830786-2.34934 3.063914-1.06765.540721 2.97264-1.074084 1.71988-1.308837 4.15816-.568482 5.90445 1.080614 2.54892 1.419548 2.27636 2.367602-1.90389.608533-2.68329 1.571413-5.63102 2.139671-6.55051 1.502643-2.43132-3.703147-3.95874-6.260034-1.83673-4.240738 3.51951-.743771 21.95728 4.164469 21.95728.831971 0 .102595-2.51051-1.62082-5.57893zM103.92473 134.48562c3.26726-4.419 3.27989-4.60296.37294-5.36312-1.65553-.43295-3.30252.02621-3.65977 1.02037-.35724.99414-1.688629 3.60006-2.446497 2.88876-.760097-.71339.656619-4.88631 2.644277-6.3856 1.98187-1.4948 3.10316-3.21777 2.49203-3.82884-.61095-.61101-2.19839-.22826-3.527444.85065-2.013939 1.63472-2.252241 1.5226-1.430364-.67305 1.073567-2.86805-2.814271-5.37314-4.387753-2.82724-.513714.83121-.104835 1.51124.908586 1.51124 1.016012 0 1.420422 1.10013.901498 2.45245-.538888 1.40431-.274454 2.04044.618672 1.48847.857875-.53022 1.448166.32176 1.311755 1.89323-.495143 5.70453.282027 11.5486 1.535823 11.5486.705682 0 2.805487-2.05917 4.666247-4.57592zM92.740191 126.7962c-.395508-1.51086-.704776.09742-.687248 3.57397.017538 3.47654.341167 4.71271.719145 2.74699.377976-1.96567.363606-4.8101-.031897-6.32096zM127.43571 127.20966c-1.30361-1.30369-2.75452-2.37037-3.22366-2.37037-.46957 0-.44399 1.06668.05615 2.37037.50042 1.30371 1.95091 2.3704 3.22383 2.3704 2.00686 0 1.99957-.31454-.05632-2.3704zM521.10856 154.99786c1.5092-.79553 5.23264-2.20501 8.27491-3.1322l5.53068-1.68578-6.32081.71427c-3.47677.39284-7.52392.91345-8.99402 1.15689-1.46998.24344-2.8921-.2685-3.16045-1.13763-.26852-.86914 3.06801-2.00187 7.4134-2.51717l7.90154-.93693-9.13603-.24826c-10.10625-.27462-13.58172 2.69957-8.0502 6.88852 3.59261 2.7203 3.18934 2.66492 6.54098.89829zM543.30817 147.376c-.61185-3.17809-5.61658-4.61291-7.95013-2.27935-2.37619 2.37636-.00061 5.02664 4.50603 5.02664 2.92337 0 3.83351-.7259 3.4441-2.74729z"/>
  <path style="fill:#fff" d="M536.13227 147.5883c.52526-.5251 1.88829-.58124 3.0288-.12475 1.26055.50445.88613.8789-.95478.95473-1.66584.06862-2.59897-.30488-2.07402-.82998zM534.40673 135.9456c-1.89348-2.56153-3.44301-5.80494-3.44301-7.20757 0-4.43614-5.48312-1.91382-6.02563 2.77167-.41483 3.58913.47061 4.74229 5.53136 7.2052 3.31374 1.61272 6.32996 2.69726 6.70294 2.41012.3725-.28716-.87165-2.61789-2.76566-5.17942zM542.27565 134.71586c.1377-2.39012.13874-5.63144.00223-7.20292-.13629-1.57147.45402-2.42345 1.31213-1.89323.89313.55197 1.15743-.08416.61871-1.48847-.51936-1.35232-.11482-2.45245.90134-2.45245 1.0133 0 1.42241-.68003.90871-1.51124-1.57371-2.5459-5.46157-.04081-4.38799 2.82724.82199 2.19565.58345 2.30777-1.43016.67305-1.32912-1.07891-2.9167-1.46166-3.5275-.85065-.61131.61107.51017 2.33404 2.49188 3.82884 1.988 1.49929 2.98523 3.29772 2.22526 4.01111-.75781.71131-1.6704.47987-2.02724-.51427-.35751-.99416-2.0044-1.45332-3.65987-1.02037-2.90704.76016-2.89447.94412.3728 5.36312 4.23185 5.72359 5.87966 5.7848 6.1997.23024zM553.83664 134.39927c2.99924-5.7996 3.12601-14.90065.24076-17.29501-2.55642-2.12201-7.76285-.59459-6.25987 1.83673.56836.91949 1.53122 3.86722 2.13949 6.55051.94823 4.18025 1.28699 4.45281 2.36761 1.90389.74051-1.74629.50559-4.18457-.56849-5.90445-2.52301-4.04029-2.29005-5.32198.54089-2.97264 3.25601 2.70213 2.96925 8.31881-.76326 14.96431-1.72327 3.06842-2.45283 5.57893-1.62086 5.57893.83197 0 2.5976-2.09803 3.92373-4.66227zM547.85176 126.7962c-.39552-1.51086-.70493.09742-.68728 3.57397.01762 3.47654.34137 4.71271.71929 2.74699.37811-1.96567.36362-4.8101-.03201-6.32096zM515.73261 127.20966c.49993-1.30369.52572-2.37037.05597-2.37037-.46907 0-1.92003 1.06668-3.22358 2.37037-2.05579 2.05586-2.06313 2.3704-.05631 2.3704 1.2729 0 2.72375-1.06669 3.22392-2.3704z"/>
</svg>
